<?xml version="1.0" encoding="utf-8"?>
<!-- Svg Vector Icons : http://www.onlinewebfonts.com/icon -->
<!DOCTYPE svg PUBLIC "-//W3C//DTD SVG 1.1//EN" "http://www.w3.org/Graphics/SVG/1.1/DTD/svg11.dtd">
<svg version="1.1" xmlns="http://www.w3.org/2000/svg" xmlns:xlink="http://www.w3.org/1999/xlink" x="0px" y="0px" viewBox="0 0 1000 1000" enable-background="new 0 0 1000 1000" xml:space="preserve">
<metadata> Svg Vector Icons : http://www.onlinewebfonts.com/icon </metadata>
<g><path d="M987.2,116l-2.7,5.8c-48.4,104.9-115,200.4-196.8,282l-120.2,120c-13.7,13.6-35.8,13.6-49.6,0L510.7,416.9c-13.7-13.7-13.7-36,0-49.7l117.9-117.6c84.3-84,183.2-151.8,292.1-199.9l0,0C963.7,31.4,1000.5,70.2,987.2,116z"/><path d="M603.2,554.4L480.1,431.1c-9.3-9.3-24.2-9.3-33.5,0l-17,17c-36.3,36.1-32.4,102,11.2,145.4c43.6,43.5,109.4,47.2,145.7,11.2l16.8-16.8C612.5,578.7,612.5,563.6,603.2,554.4z"/><path d="M406.5,873.8c-6.1,6.1-12.6,11.5-19.2,16.6C249.7,1003.1,66.8,942.3,10,901.8c69.9-11.4,79-152.3,79-152.3l0.2-0.1c1.8-47.4,21.7-95.5,59.5-133c74.7-74.4,192.8-77.2,264.1-6.2C483.8,681.4,481.1,799.3,406.5,873.8z"/></g>
</svg>